<svg width="1344" height="332" viewBox="0 0 1344 332" fill="none" xmlns="http://www.w3.org/2000/svg">
<rect x="956" width="388" height="332" rx="12" fill="#F1A61E"/>
<g filter="url(#filter0_b_370_1219)">
<path d="M1083.2 186H1078.26C1078.11 186 1078.04 185.928 1078.04 185.785L1078.13 155.557C1078.13 155.442 1078.19 155.385 1078.3 155.385H1092.39C1092.54 155.385 1092.61 155.442 1092.61 155.557V160.52C1092.61 160.634 1092.55 160.691 1092.44 160.691H1083.41V167.523H1092.44C1092.55 167.523 1092.61 167.595 1092.61 167.738L1092.65 172.723C1092.65 172.837 1092.58 172.895 1092.44 172.895H1083.41V185.785C1083.41 185.928 1083.34 186 1083.2 186ZM1104.71 186.43C1103.14 186.43 1101.7 186.029 1100.39 185.227C1099.08 184.424 1098.03 183.357 1097.23 182.025C1096.44 180.679 1096.05 179.204 1096.05 177.6L1096.09 163.656C1096.09 162.023 1096.48 160.555 1097.27 159.252C1098.04 157.934 1099.09 156.882 1100.41 156.094C1101.73 155.292 1103.16 154.891 1104.71 154.891C1106.31 154.891 1107.75 155.285 1109.02 156.072C1110.31 156.86 1111.34 157.92 1112.12 159.252C1112.9 160.57 1113.3 162.038 1113.3 163.656L1113.34 177.6C1113.34 179.204 1112.96 180.672 1112.18 182.004C1111.39 183.35 1110.35 184.424 1109.04 185.227C1107.74 186.029 1106.29 186.43 1104.71 186.43ZM1104.71 181.123C1105.59 181.123 1106.37 180.765 1107.03 180.049C1107.68 179.318 1108.01 178.502 1108.01 177.6L1107.97 163.656C1107.97 162.682 1107.66 161.859 1107.05 161.186C1106.43 160.512 1105.65 160.176 1104.71 160.176C1103.8 160.176 1103.03 160.505 1102.38 161.164C1101.74 161.823 1101.42 162.654 1101.42 163.656V177.6C1101.42 178.559 1101.74 179.39 1102.38 180.092C1103.03 180.779 1103.8 181.123 1104.71 181.123ZM1121.83 186H1116.84C1116.73 186 1116.67 185.928 1116.67 185.785L1116.76 155.557C1116.76 155.442 1116.82 155.385 1116.93 155.385H1125.82C1127.41 155.385 1128.88 155.771 1130.21 156.545C1131.54 157.318 1132.6 158.357 1133.39 159.66C1134.19 160.964 1134.59 162.439 1134.59 164.086C1134.59 165.16 1134.43 166.134 1134.1 167.008C1133.77 167.882 1133.38 168.619 1132.94 169.221C1132.51 169.822 1132.11 170.266 1131.75 170.553C1133.34 172.314 1134.14 174.384 1134.14 176.762L1134.18 185.785C1134.18 185.928 1134.11 186 1133.97 186H1128.98C1128.87 186 1128.81 185.957 1128.81 185.871V176.762C1128.81 175.702 1128.44 174.785 1127.69 174.012C1126.95 173.238 1126.03 172.852 1124.94 172.852H1122.04L1122 185.785C1122 185.928 1121.94 186 1121.83 186ZM1125.82 160.648H1122.04V167.566H1125.82C1126.73 167.566 1127.53 167.23 1128.23 166.557C1128.95 165.883 1129.3 165.06 1129.3 164.086C1129.3 163.155 1128.96 162.353 1128.27 161.68C1127.59 160.992 1126.77 160.648 1125.82 160.648ZM1154.48 186H1149.54C1149.4 186 1149.33 185.928 1149.33 185.785L1149.41 155.557C1149.41 155.442 1149.47 155.385 1149.59 155.385H1163.68C1163.82 155.385 1163.89 155.442 1163.89 155.557V160.52C1163.89 160.634 1163.84 160.691 1163.72 160.691H1154.7V167.523H1163.72C1163.84 167.523 1163.89 167.595 1163.89 167.738L1163.94 172.723C1163.94 172.837 1163.87 172.895 1163.72 172.895H1154.7V185.785C1154.7 185.928 1154.63 186 1154.48 186ZM1164.6 185.785L1170.06 155.557C1170.09 155.442 1170.16 155.385 1170.28 155.385H1176.66C1176.77 155.385 1176.84 155.442 1176.87 155.557L1182.11 185.785C1182.13 185.928 1182.07 186 1181.94 186H1177.06C1176.92 186 1176.84 185.928 1176.83 185.785L1176.36 182.562H1170.36L1169.89 185.785C1169.87 185.928 1169.8 186 1169.67 186H1164.78C1164.66 186 1164.6 185.928 1164.6 185.785ZM1173.22 165.504L1171.24 177.857H1175.47L1173.67 165.504L1173.41 163.871L1173.22 165.504ZM1189.65 186H1185.25C1185.02 186 1184.91 185.9 1184.91 185.699L1184.86 155.729C1184.86 155.499 1184.98 155.385 1185.21 155.385H1189.18L1196.62 172.723L1196.4 155.729C1196.4 155.499 1196.53 155.385 1196.79 155.385H1201.15C1201.32 155.385 1201.41 155.499 1201.41 155.729L1201.45 185.742C1201.45 185.914 1201.38 186 1201.23 186H1197.37L1189.74 169.801L1190.06 185.656C1190.06 185.885 1189.93 186 1189.65 186ZM1212.75 186.43C1211.19 186.43 1209.75 186.029 1208.43 185.227C1207.13 184.424 1206.08 183.357 1205.29 182.025C1204.52 180.679 1204.13 179.204 1204.13 177.6V175.58C1204.13 175.423 1204.21 175.344 1204.35 175.344H1209.29C1209.41 175.344 1209.46 175.423 1209.46 175.58V177.6C1209.46 178.559 1209.79 179.39 1210.43 180.092C1211.07 180.779 1211.85 181.123 1212.75 181.123C1213.67 181.123 1214.45 180.772 1215.09 180.07C1215.74 179.354 1216.06 178.531 1216.06 177.6C1216.06 176.525 1215.36 175.587 1213.95 174.785C1213.72 174.642 1213.42 174.47 1213.05 174.27C1212.69 174.055 1212.26 173.811 1211.76 173.539C1211.26 173.267 1210.77 173.002 1210.3 172.744C1209.83 172.472 1209.37 172.214 1208.93 171.971C1207.32 171.025 1206.13 169.844 1205.34 168.426C1204.56 166.993 1204.18 165.389 1204.18 163.613C1204.18 161.98 1204.58 160.505 1205.38 159.188C1206.18 157.884 1207.23 156.853 1208.52 156.094C1209.82 155.32 1211.23 154.934 1212.75 154.934C1214.31 154.934 1215.74 155.32 1217.05 156.094C1218.35 156.882 1219.39 157.927 1220.16 159.23C1220.95 160.534 1221.34 161.995 1221.34 163.613V167.223C1221.34 167.337 1221.29 167.395 1221.17 167.395H1216.23C1216.12 167.395 1216.06 167.337 1216.06 167.223L1216.02 163.613C1216.02 162.582 1215.69 161.744 1215.05 161.1C1214.4 160.455 1213.64 160.133 1212.75 160.133C1211.85 160.133 1211.07 160.477 1210.43 161.164C1209.79 161.852 1209.46 162.668 1209.46 163.613C1209.46 164.573 1209.66 165.375 1210.06 166.02C1210.48 166.664 1211.23 167.28 1212.32 167.867C1212.43 167.924 1212.7 168.068 1213.12 168.297C1213.53 168.526 1213.99 168.784 1214.49 169.07C1215.01 169.342 1215.47 169.593 1215.89 169.822C1216.3 170.037 1216.55 170.166 1216.64 170.209C1218.1 171.025 1219.25 172.028 1220.1 173.217C1220.96 174.406 1221.39 175.867 1221.39 177.6C1221.39 179.275 1221 180.779 1220.23 182.111C1219.44 183.443 1218.39 184.496 1217.09 185.27C1215.79 186.043 1214.34 186.43 1212.75 186.43Z" fill="white"/>
</g>
<rect x="482" width="388" height="332" rx="12" fill="#F1A61E"/>
<path d="M589.715 186H584.773C584.63 186 584.559 185.928 584.559 185.785L584.645 155.557C584.645 155.442 584.702 155.385 584.816 155.385H598.91C599.053 155.385 599.125 155.442 599.125 155.557V160.52C599.125 160.634 599.068 160.691 598.953 160.691H589.93V167.523H598.953C599.068 167.523 599.125 167.595 599.125 167.738L599.168 172.723C599.168 172.837 599.096 172.895 598.953 172.895H589.93V185.785C589.93 185.928 589.858 186 589.715 186ZM609.459 186.43C607.898 186.43 606.458 186.029 605.141 185.227C603.837 184.424 602.785 183.357 601.982 182.025C601.195 180.679 600.801 179.204 600.801 177.6L600.844 163.656C600.844 162.023 601.238 160.555 602.025 159.252C602.799 157.934 603.844 156.882 605.162 156.094C606.48 155.292 607.912 154.891 609.459 154.891C611.063 154.891 612.503 155.285 613.777 156.072C615.066 156.86 616.098 157.92 616.871 159.252C617.659 160.57 618.053 162.038 618.053 163.656L618.096 177.6C618.096 179.204 617.709 180.672 616.936 182.004C616.148 183.35 615.102 184.424 613.799 185.227C612.495 186.029 611.049 186.43 609.459 186.43ZM609.459 181.123C610.347 181.123 611.12 180.765 611.779 180.049C612.438 179.318 612.768 178.502 612.768 177.6L612.725 163.656C612.725 162.682 612.417 161.859 611.801 161.186C611.185 160.512 610.404 160.176 609.459 160.176C608.557 160.176 607.783 160.505 607.139 161.164C606.494 161.823 606.172 162.654 606.172 163.656V177.6C606.172 178.559 606.494 179.39 607.139 180.092C607.783 180.779 608.557 181.123 609.459 181.123ZM626.582 186H621.598C621.483 186 621.426 185.928 621.426 185.785L621.512 155.557C621.512 155.442 621.569 155.385 621.684 155.385H630.578C632.168 155.385 633.629 155.771 634.961 156.545C636.293 157.318 637.353 158.357 638.141 159.66C638.943 160.964 639.344 162.439 639.344 164.086C639.344 165.16 639.179 166.134 638.85 167.008C638.52 167.882 638.133 168.619 637.689 169.221C637.26 169.822 636.866 170.266 636.508 170.553C638.098 172.314 638.893 174.384 638.893 176.762L638.936 185.785C638.936 185.928 638.864 186 638.721 186H633.736C633.622 186 633.564 185.957 633.564 185.871V176.762C633.564 175.702 633.192 174.785 632.447 174.012C631.702 173.238 630.786 172.852 629.697 172.852H626.797L626.754 185.785C626.754 185.928 626.697 186 626.582 186ZM630.578 160.648H626.797V167.566H630.578C631.48 167.566 632.283 167.23 632.984 166.557C633.701 165.883 634.059 165.06 634.059 164.086C634.059 163.155 633.715 162.353 633.027 161.68C632.34 160.992 631.523 160.648 630.578 160.648ZM662.139 186H654.254C654.139 186 654.082 185.928 654.082 185.785L654.168 155.557C654.168 155.442 654.225 155.385 654.34 155.385H662.805C664.452 155.385 665.949 155.786 667.295 156.588C668.613 157.39 669.651 158.457 670.41 159.789C671.169 161.107 671.549 162.539 671.549 164.086C671.549 165.346 671.262 166.521 670.689 167.609C670.117 168.698 669.436 169.579 668.648 170.252C669.493 171.097 670.152 172.078 670.625 173.195C671.098 174.312 671.334 175.487 671.334 176.719C671.334 178.423 670.926 179.977 670.109 181.381C669.279 182.785 668.169 183.909 666.779 184.754C665.39 185.585 663.843 186 662.139 186ZM662.805 160.605H659.453V167.523H662.805C663.822 167.523 664.645 167.165 665.275 166.449C665.906 165.719 666.221 164.931 666.221 164.086C666.221 163.155 665.884 162.346 665.211 161.658C664.538 160.956 663.736 160.605 662.805 160.605ZM662.139 172.852H659.453L659.41 180.629H662.139C663.199 180.629 664.108 180.242 664.867 179.469C665.626 178.695 666.006 177.779 666.006 176.719C666.006 175.659 665.626 174.749 664.867 173.99C664.108 173.231 663.199 172.852 662.139 172.852ZM679.648 186H674.664C674.549 186 674.492 185.928 674.492 185.785L674.578 155.557C674.578 155.442 674.635 155.385 674.75 155.385H683.645C685.234 155.385 686.695 155.771 688.027 156.545C689.359 157.318 690.419 158.357 691.207 159.66C692.009 160.964 692.41 162.439 692.41 164.086C692.41 165.16 692.245 166.134 691.916 167.008C691.587 167.882 691.2 168.619 690.756 169.221C690.326 169.822 689.932 170.266 689.574 170.553C691.164 172.314 691.959 174.384 691.959 176.762L692.002 185.785C692.002 185.928 691.93 186 691.787 186H686.803C686.688 186 686.631 185.957 686.631 185.871V176.762C686.631 175.702 686.258 174.785 685.514 174.012C684.769 173.238 683.852 172.852 682.764 172.852H679.863L679.82 185.785C679.82 185.928 679.763 186 679.648 186ZM683.645 160.648H679.863V167.566H683.645C684.547 167.566 685.349 167.23 686.051 166.557C686.767 165.883 687.125 165.06 687.125 164.086C687.125 163.155 686.781 162.353 686.094 161.68C685.406 160.992 684.59 160.648 683.645 160.648ZM693.334 185.785L698.791 155.557C698.82 155.442 698.891 155.385 699.006 155.385H705.387C705.501 155.385 705.573 155.442 705.602 155.557L710.844 185.785C710.858 185.928 710.801 186 710.672 186H705.795C705.652 186 705.573 185.928 705.559 185.785L705.086 182.562H699.092L698.619 185.785C698.605 185.928 698.533 186 698.404 186H693.506C693.391 186 693.334 185.928 693.334 185.785ZM701.949 165.504L699.973 177.857H704.205L702.4 165.504L702.143 163.871L701.949 165.504ZM718.385 186H713.98C713.751 186 713.637 185.9 713.637 185.699L713.594 155.729C713.594 155.499 713.708 155.385 713.938 155.385H717.912L725.346 172.723L725.131 155.729C725.131 155.499 725.26 155.385 725.518 155.385H729.879C730.051 155.385 730.137 155.499 730.137 155.729L730.18 185.742C730.18 185.914 730.108 186 729.965 186H726.098L718.471 169.801L718.793 185.656C718.793 185.885 718.657 186 718.385 186ZM742.104 185.957L734.219 186C734.076 186 734.004 185.928 734.004 185.785L734.09 155.557C734.09 155.442 734.147 155.385 734.262 155.385L742.49 155.342C744.123 155.299 745.598 155.671 746.916 156.459C748.248 157.247 749.308 158.314 750.096 159.66C750.898 160.992 751.299 162.467 751.299 164.086V176.719C751.299 178.409 750.891 179.956 750.074 181.359C749.243 182.749 748.141 183.859 746.766 184.689C745.391 185.506 743.837 185.928 742.104 185.957ZM742.49 160.605L739.418 160.648L739.375 180.586H742.104C743.192 180.586 744.109 180.206 744.854 179.447C745.598 178.688 745.971 177.779 745.971 176.719V164.043C745.971 163.112 745.627 162.303 744.939 161.615C744.252 160.913 743.436 160.577 742.49 160.605ZM762.234 186.43C760.673 186.43 759.234 186.029 757.916 185.227C756.613 184.424 755.567 183.357 754.779 182.025C754.006 180.679 753.619 179.204 753.619 177.6V175.58C753.619 175.423 753.691 175.344 753.834 175.344H758.775C758.89 175.344 758.947 175.423 758.947 175.58V177.6C758.947 178.559 759.27 179.39 759.914 180.092C760.559 180.779 761.332 181.123 762.234 181.123C763.151 181.123 763.932 180.772 764.576 180.07C765.221 179.354 765.543 178.531 765.543 177.6C765.543 176.525 764.841 175.587 763.438 174.785C763.208 174.642 762.908 174.47 762.535 174.27C762.177 174.055 761.747 173.811 761.246 173.539C760.745 173.267 760.258 173.002 759.785 172.744C759.312 172.472 758.854 172.214 758.41 171.971C756.806 171.025 755.61 169.844 754.822 168.426C754.049 166.993 753.662 165.389 753.662 163.613C753.662 161.98 754.063 160.505 754.865 159.188C755.667 157.884 756.713 156.853 758.002 156.094C759.305 155.32 760.716 154.934 762.234 154.934C763.796 154.934 765.228 155.32 766.531 156.094C767.835 156.882 768.873 157.927 769.646 159.23C770.434 160.534 770.828 161.995 770.828 163.613V167.223C770.828 167.337 770.771 167.395 770.656 167.395H765.715C765.6 167.395 765.543 167.337 765.543 167.223L765.5 163.613C765.5 162.582 765.178 161.744 764.533 161.1C763.889 160.455 763.122 160.133 762.234 160.133C761.332 160.133 760.559 160.477 759.914 161.164C759.27 161.852 758.947 162.668 758.947 163.613C758.947 164.573 759.148 165.375 759.549 166.02C759.964 166.664 760.716 167.28 761.805 167.867C761.919 167.924 762.184 168.068 762.6 168.297C763.015 168.526 763.473 168.784 763.975 169.07C764.49 169.342 764.956 169.593 765.371 169.822C765.786 170.037 766.037 170.166 766.123 170.209C767.584 171.025 768.737 172.028 769.582 173.217C770.441 174.406 770.871 175.867 770.871 177.6C770.871 179.275 770.484 180.779 769.711 182.111C768.923 183.443 767.878 184.496 766.574 185.27C765.271 186.043 763.824 186.43 762.234 186.43Z" fill="white"/>
<rect width="388" height="332" rx="12" fill="#F1A61E"/>
<path d="M88.4863 186H83.5449C83.4017 186 83.3301 185.928 83.3301 185.785L83.416 155.557C83.416 155.442 83.4733 155.385 83.5879 155.385H97.6816C97.8249 155.385 97.8965 155.442 97.8965 155.557V160.52C97.8965 160.634 97.8392 160.691 97.7246 160.691H88.7012V167.523H97.7246C97.8392 167.523 97.8965 167.595 97.8965 167.738L97.9395 172.723C97.9395 172.837 97.8678 172.895 97.7246 172.895H88.7012V185.785C88.7012 185.928 88.6296 186 88.4863 186ZM109.992 186.43C108.431 186.43 106.992 186.029 105.674 185.227C104.37 184.424 103.318 183.357 102.516 182.025C101.728 180.679 101.334 179.204 101.334 177.6L101.377 163.656C101.377 162.023 101.771 160.555 102.559 159.252C103.332 157.934 104.378 156.882 105.695 156.094C107.013 155.292 108.445 154.891 109.992 154.891C111.596 154.891 113.036 155.285 114.311 156.072C115.6 156.86 116.631 157.92 117.404 159.252C118.192 160.57 118.586 162.038 118.586 163.656L118.629 177.6C118.629 179.204 118.242 180.672 117.469 182.004C116.681 183.35 115.635 184.424 114.332 185.227C113.029 186.029 111.582 186.43 109.992 186.43ZM109.992 181.123C110.88 181.123 111.654 180.765 112.312 180.049C112.971 179.318 113.301 178.502 113.301 177.6L113.258 163.656C113.258 162.682 112.95 161.859 112.334 161.186C111.718 160.512 110.938 160.176 109.992 160.176C109.09 160.176 108.316 160.505 107.672 161.164C107.027 161.823 106.705 162.654 106.705 163.656V177.6C106.705 178.559 107.027 179.39 107.672 180.092C108.316 180.779 109.09 181.123 109.992 181.123ZM127.115 186H122.131C122.016 186 121.959 185.928 121.959 185.785L122.045 155.557C122.045 155.442 122.102 155.385 122.217 155.385H131.111C132.701 155.385 134.162 155.771 135.494 156.545C136.826 157.318 137.886 158.357 138.674 159.66C139.476 160.964 139.877 162.439 139.877 164.086C139.877 165.16 139.712 166.134 139.383 167.008C139.053 167.882 138.667 168.619 138.223 169.221C137.793 169.822 137.399 170.266 137.041 170.553C138.631 172.314 139.426 174.384 139.426 176.762L139.469 185.785C139.469 185.928 139.397 186 139.254 186H134.27C134.155 186 134.098 185.957 134.098 185.871V176.762C134.098 175.702 133.725 174.785 132.98 174.012C132.236 173.238 131.319 172.852 130.23 172.852H127.33L127.287 185.785C127.287 185.928 127.23 186 127.115 186ZM131.111 160.648H127.33V167.566H131.111C132.014 167.566 132.816 167.23 133.518 166.557C134.234 165.883 134.592 165.06 134.592 164.086C134.592 163.155 134.248 162.353 133.561 161.68C132.873 160.992 132.057 160.648 131.111 160.648ZM162.715 186.43C161.125 186.43 159.671 186.029 158.354 185.227C157.05 184.424 156.012 183.35 155.238 182.004C154.479 180.643 154.1 179.132 154.1 177.471L154.143 163.742C154.143 162.109 154.515 160.634 155.26 159.316C156.005 157.984 157.029 156.917 158.332 156.115C159.65 155.299 161.111 154.891 162.715 154.891C164.348 154.891 165.801 155.285 167.076 156.072C168.365 156.86 169.389 157.927 170.148 159.273C170.922 160.605 171.309 162.095 171.309 163.742V165.762C171.309 165.876 171.251 165.934 171.137 165.934H166.195C166.081 165.934 166.023 165.876 166.023 165.762V163.742C166.023 162.768 165.708 161.93 165.078 161.229C164.448 160.527 163.66 160.176 162.715 160.176C161.669 160.176 160.867 160.534 160.309 161.25C159.75 161.966 159.471 162.797 159.471 163.742V177.471C159.471 178.545 159.786 179.426 160.416 180.113C161.046 180.786 161.812 181.123 162.715 181.123C163.66 181.123 164.448 180.751 165.078 180.006C165.708 179.247 166.023 178.402 166.023 177.471V175.43C166.023 175.315 166.081 175.258 166.195 175.258H171.18C171.294 175.258 171.352 175.315 171.352 175.43V177.471C171.352 179.118 170.965 180.622 170.191 181.982C169.404 183.329 168.365 184.41 167.076 185.227C165.787 186.029 164.333 186.43 162.715 186.43ZM179.709 186H174.725C174.61 186 174.553 185.928 174.553 185.785L174.639 155.557C174.639 155.442 174.696 155.385 174.811 155.385H183.705C185.295 155.385 186.756 155.771 188.088 156.545C189.42 157.318 190.48 158.357 191.268 159.66C192.07 160.964 192.471 162.439 192.471 164.086C192.471 165.16 192.306 166.134 191.977 167.008C191.647 167.882 191.26 168.619 190.816 169.221C190.387 169.822 189.993 170.266 189.635 170.553C191.225 172.314 192.02 174.384 192.02 176.762L192.062 185.785C192.062 185.928 191.991 186 191.848 186H186.863C186.749 186 186.691 185.957 186.691 185.871V176.762C186.691 175.702 186.319 174.785 185.574 174.012C184.829 173.238 183.913 172.852 182.824 172.852H179.924L179.881 185.785C179.881 185.928 179.824 186 179.709 186ZM183.705 160.648H179.924V167.566H183.705C184.607 167.566 185.41 167.23 186.111 166.557C186.827 165.883 187.186 165.06 187.186 164.086C187.186 163.155 186.842 162.353 186.154 161.68C185.467 160.992 184.65 160.648 183.705 160.648ZM210.174 186H195.951C195.837 186 195.779 185.928 195.779 185.785L195.822 155.557C195.822 155.442 195.88 155.385 195.994 155.385H210.131C210.245 155.385 210.303 155.456 210.303 155.6V160.52C210.303 160.634 210.245 160.691 210.131 160.691H201.107V167.566H210.131C210.245 167.566 210.303 167.624 210.303 167.738L210.346 172.723C210.346 172.837 210.288 172.895 210.174 172.895H201.107V180.586H210.174C210.288 180.586 210.346 180.658 210.346 180.801V185.828C210.346 185.943 210.288 186 210.174 186ZM212.773 185.785L218.23 155.557C218.259 155.442 218.331 155.385 218.445 155.385H224.826C224.941 155.385 225.012 155.442 225.041 155.557L230.283 185.785C230.298 185.928 230.24 186 230.111 186H225.234C225.091 186 225.012 185.928 224.998 185.785L224.525 182.562H218.531L218.059 185.785C218.044 185.928 217.973 186 217.844 186H212.945C212.831 186 212.773 185.928 212.773 185.785ZM221.389 165.504L219.412 177.857H223.645L221.84 165.504L221.582 163.871L221.389 165.504ZM242.422 186H237.459C237.33 186 237.266 185.928 237.266 185.785V160.691H231.551C231.408 160.691 231.336 160.62 231.336 160.477L231.379 155.557C231.379 155.442 231.436 155.385 231.551 155.385H248.266C248.423 155.385 248.502 155.442 248.502 155.557V160.477C248.502 160.62 248.445 160.691 248.33 160.691H242.551L242.594 185.785C242.594 185.928 242.536 186 242.422 186ZM258.793 186.43C257.232 186.43 255.792 186.029 254.475 185.227C253.171 184.424 252.118 183.357 251.316 182.025C250.529 180.679 250.135 179.204 250.135 177.6L250.178 163.656C250.178 162.023 250.572 160.555 251.359 159.252C252.133 157.934 253.178 156.882 254.496 156.094C255.814 155.292 257.246 154.891 258.793 154.891C260.397 154.891 261.837 155.285 263.111 156.072C264.4 156.86 265.432 157.92 266.205 159.252C266.993 160.57 267.387 162.038 267.387 163.656L267.43 177.6C267.43 179.204 267.043 180.672 266.27 182.004C265.482 183.35 264.436 184.424 263.133 185.227C261.829 186.029 260.383 186.43 258.793 186.43ZM258.793 181.123C259.681 181.123 260.454 180.765 261.113 180.049C261.772 179.318 262.102 178.502 262.102 177.6L262.059 163.656C262.059 162.682 261.751 161.859 261.135 161.186C260.519 160.512 259.738 160.176 258.793 160.176C257.891 160.176 257.117 160.505 256.473 161.164C255.828 161.823 255.506 162.654 255.506 163.656V177.6C255.506 178.559 255.828 179.39 256.473 180.092C257.117 180.779 257.891 181.123 258.793 181.123ZM275.916 186H270.932C270.817 186 270.76 185.928 270.76 185.785L270.846 155.557C270.846 155.442 270.903 155.385 271.018 155.385H279.912C281.502 155.385 282.963 155.771 284.295 156.545C285.627 157.318 286.687 158.357 287.475 159.66C288.277 160.964 288.678 162.439 288.678 164.086C288.678 165.16 288.513 166.134 288.184 167.008C287.854 167.882 287.467 168.619 287.023 169.221C286.594 169.822 286.2 170.266 285.842 170.553C287.432 172.314 288.227 174.384 288.227 176.762L288.27 185.785C288.27 185.928 288.198 186 288.055 186H283.07C282.956 186 282.898 185.957 282.898 185.871V176.762C282.898 175.702 282.526 174.785 281.781 174.012C281.036 173.238 280.12 172.852 279.031 172.852H276.131L276.088 185.785C276.088 185.928 276.031 186 275.916 186ZM279.912 160.648H276.131V167.566H279.912C280.814 167.566 281.617 167.23 282.318 166.557C283.035 165.883 283.393 165.06 283.393 164.086C283.393 163.155 283.049 162.353 282.361 161.68C281.674 160.992 280.857 160.648 279.912 160.648ZM299.463 186.43C297.902 186.43 296.462 186.029 295.145 185.227C293.841 184.424 292.796 183.357 292.008 182.025C291.234 180.679 290.848 179.204 290.848 177.6V175.58C290.848 175.423 290.919 175.344 291.062 175.344H296.004C296.118 175.344 296.176 175.423 296.176 175.58V177.6C296.176 178.559 296.498 179.39 297.143 180.092C297.787 180.779 298.561 181.123 299.463 181.123C300.38 181.123 301.16 180.772 301.805 180.07C302.449 179.354 302.771 178.531 302.771 177.6C302.771 176.525 302.07 175.587 300.666 174.785C300.437 174.642 300.136 174.47 299.764 174.27C299.406 174.055 298.976 173.811 298.475 173.539C297.973 173.267 297.486 173.002 297.014 172.744C296.541 172.472 296.083 172.214 295.639 171.971C294.035 171.025 292.839 169.844 292.051 168.426C291.277 166.993 290.891 165.389 290.891 163.613C290.891 161.98 291.292 160.505 292.094 159.188C292.896 157.884 293.941 156.853 295.23 156.094C296.534 155.32 297.945 154.934 299.463 154.934C301.024 154.934 302.456 155.32 303.76 156.094C305.063 156.882 306.102 157.927 306.875 159.23C307.663 160.534 308.057 161.995 308.057 163.613V167.223C308.057 167.337 307.999 167.395 307.885 167.395H302.943C302.829 167.395 302.771 167.337 302.771 167.223L302.729 163.613C302.729 162.582 302.406 161.744 301.762 161.1C301.117 160.455 300.351 160.133 299.463 160.133C298.561 160.133 297.787 160.477 297.143 161.164C296.498 161.852 296.176 162.668 296.176 163.613C296.176 164.573 296.376 165.375 296.777 166.02C297.193 166.664 297.945 167.28 299.033 167.867C299.148 167.924 299.413 168.068 299.828 168.297C300.243 168.526 300.702 168.784 301.203 169.07C301.719 169.342 302.184 169.593 302.6 169.822C303.015 170.037 303.266 170.166 303.352 170.209C304.812 171.025 305.965 172.028 306.811 173.217C307.67 174.406 308.1 175.867 308.1 177.6C308.1 179.275 307.713 180.779 306.939 182.111C306.152 183.443 305.106 184.496 303.803 185.27C302.499 186.043 301.053 186.43 299.463 186.43Z" fill="white"/>
<defs>
<filter id="filter0_b_370_1219" x="1074.04" y="150.891" width="151.344" height="39.5391" filterUnits="userSpaceOnUse" color-interpolation-filters="sRGB">
<feFlood flood-opacity="0" result="BackgroundImageFix"/>
<feGaussianBlur in="BackgroundImageFix" stdDeviation="2"/>
<feComposite in2="SourceAlpha" operator="in" result="effect1_backgroundBlur_370_1219"/>
<feBlend mode="normal" in="SourceGraphic" in2="effect1_backgroundBlur_370_1219" result="shape"/>
</filter>
</defs>
</svg>
