<svg width="433" height="108" viewBox="0 0 433 108" fill="none" xmlns="http://www.w3.org/2000/svg">
<rect width="433" height="108" rx="10" fill="#F1A61E"/>
<path d="M77.8771 71.0883C76.0705 71.0883 74.4185 70.6325 72.9211 69.7211C71.4399 68.8096 70.2599 67.5889 69.381 66.059C68.5184 64.5127 68.0871 62.7956 68.0871 60.9076L68.1359 45.307C68.1359 43.4515 68.5591 41.7751 69.4054 40.2777C70.2518 38.764 71.4155 37.5515 72.8967 36.64C74.394 35.7123 76.0542 35.2484 77.8771 35.2484C79.7326 35.2484 81.3846 35.696 82.8332 36.5912C84.298 37.4864 85.4618 38.6989 86.3244 40.2289C87.2033 41.7426 87.6427 43.4353 87.6427 45.307V47.6019C87.6427 47.7321 87.5776 47.7972 87.4474 47.7972H81.8322C81.702 47.7972 81.6369 47.7321 81.6369 47.6019V45.307C81.6369 44.2002 81.2788 43.2481 80.5627 42.4506C79.8465 41.653 78.9513 41.2543 77.8771 41.2543C76.689 41.2543 75.7775 41.6612 75.1427 42.475C74.508 43.2888 74.1906 44.2328 74.1906 45.307V60.9076C74.1906 62.1283 74.5487 63.1293 75.2648 63.9105C75.981 64.6755 76.8517 65.058 77.8771 65.058C78.9513 65.058 79.8465 64.6348 80.5627 63.7885C81.2788 62.9258 81.6369 61.9655 81.6369 60.9076V58.5883C81.6369 58.458 81.702 58.3929 81.8322 58.3929H87.4963C87.6265 58.3929 87.6916 58.458 87.6916 58.5883V60.9076C87.6916 62.7793 87.2521 64.4883 86.3732 66.0345C85.478 67.5645 84.298 68.7933 82.8332 69.7211C81.3683 70.6325 79.7163 71.0883 77.8771 71.0883ZM100.582 71.0883C98.8081 71.0883 97.1724 70.6325 95.675 69.7211C94.1939 68.8096 92.9976 67.597 92.0861 66.0834C91.1909 64.5534 90.7433 62.877 90.7433 61.0541L90.7922 45.2094C90.7922 43.3539 91.2398 41.6856 92.1349 40.2045C93.0138 38.7071 94.202 37.5108 95.6994 36.6156C97.1968 35.7041 98.8244 35.2484 100.582 35.2484C102.405 35.2484 104.041 35.696 105.489 36.5912C106.954 37.4864 108.126 38.6908 109.005 40.2045C109.9 41.7019 110.348 43.3702 110.348 45.2094L110.397 61.0541C110.397 62.877 109.957 64.5453 109.078 66.059C108.183 67.5889 106.995 68.8096 105.514 69.7211C104.033 70.6325 102.389 71.0883 100.582 71.0883ZM100.582 65.058C101.591 65.058 102.47 64.6511 103.219 63.8373C103.968 63.0072 104.342 62.0795 104.342 61.0541L104.293 45.2094C104.293 44.1026 103.943 43.1667 103.243 42.4017C102.543 41.6368 101.656 41.2543 100.582 41.2543C99.5568 41.2543 98.6779 41.6286 97.9455 42.3773C97.2131 43.126 96.8468 44.07 96.8468 45.2094V61.0541C96.8468 62.1446 97.2131 63.0886 97.9455 63.8861C98.6779 64.6674 99.5568 65.058 100.582 65.058ZM119.625 70.6H114.62C114.36 70.6 114.23 70.486 114.23 70.2582L114.181 36.2006C114.181 35.9401 114.311 35.8099 114.571 35.8099H119.088L127.535 55.5121L127.291 36.2006C127.291 35.9401 127.438 35.8099 127.731 35.8099H132.687C132.882 35.8099 132.98 35.9401 132.98 36.2006L133.028 70.307C133.028 70.5023 132.947 70.6 132.784 70.6H128.39L119.723 52.1918L120.089 70.2094C120.089 70.4698 119.934 70.6 119.625 70.6ZM142.819 70.6H137.814C137.553 70.6 137.423 70.486 137.423 70.2582L137.374 36.2006C137.374 35.9401 137.504 35.8099 137.765 35.8099H142.281L150.729 55.5121L150.485 36.2006C150.485 35.9401 150.631 35.8099 150.924 35.8099H155.88C156.075 35.8099 156.173 35.9401 156.173 36.2006L156.222 70.307C156.222 70.5023 156.14 70.6 155.978 70.6H151.583L142.916 52.1918L143.282 70.2094C143.282 70.4698 143.128 70.6 142.819 70.6ZM176.925 70.6H160.763C160.633 70.6 160.568 70.5186 160.568 70.3558L160.616 36.0052C160.616 35.875 160.681 35.8099 160.812 35.8099H176.876C177.006 35.8099 177.071 35.8913 177.071 36.0541V41.6449C177.071 41.7751 177.006 41.8402 176.876 41.8402H166.622V49.6527H176.876C177.006 49.6527 177.071 49.7178 177.071 49.848L177.12 55.5121C177.12 55.6423 177.055 55.7074 176.925 55.7074H166.622V64.4476H176.925C177.055 64.4476 177.12 64.529 177.12 64.6918V70.4047C177.12 70.5349 177.055 70.6 176.925 70.6ZM190.768 71.0883C188.961 71.0883 187.309 70.6325 185.812 69.7211C184.331 68.8096 183.151 67.5889 182.272 66.059C181.409 64.5127 180.978 62.7956 180.978 60.9076L181.027 45.307C181.027 43.4515 181.45 41.7751 182.296 40.2777C183.142 38.764 184.306 37.5515 185.787 36.64C187.285 35.7123 188.945 35.2484 190.768 35.2484C192.623 35.2484 194.275 35.696 195.724 36.5912C197.189 37.4864 198.352 38.6989 199.215 40.2289C200.094 41.7426 200.533 43.4353 200.533 45.307V47.6019C200.533 47.7321 200.468 47.7972 200.338 47.7972H194.723C194.593 47.7972 194.528 47.7321 194.528 47.6019V45.307C194.528 44.2002 194.169 43.2481 193.453 42.4506C192.737 41.653 191.842 41.2543 190.768 41.2543C189.58 41.2543 188.668 41.6612 188.033 42.475C187.399 43.2888 187.081 44.2328 187.081 45.307V60.9076C187.081 62.1283 187.439 63.1293 188.155 63.9105C188.872 64.6755 189.742 65.058 190.768 65.058C191.842 65.058 192.737 64.6348 193.453 63.7885C194.169 62.9258 194.528 61.9655 194.528 60.9076V58.5883C194.528 58.458 194.593 58.3929 194.723 58.3929H200.387C200.517 58.3929 200.582 58.458 200.582 58.5883V60.9076C200.582 62.7793 200.143 64.4883 199.264 66.0345C198.369 67.5645 197.189 68.7933 195.724 69.7211C194.259 70.6325 192.607 71.0883 190.768 71.0883ZM214.889 70.6H209.249C209.103 70.6 209.029 70.5186 209.029 70.3558V41.8402H202.535C202.373 41.8402 202.291 41.7588 202.291 41.5961L202.34 36.0052C202.34 35.875 202.405 35.8099 202.535 35.8099H221.529C221.709 35.8099 221.798 35.875 221.798 36.0052V41.5961C221.798 41.7588 221.733 41.8402 221.603 41.8402H215.035L215.084 70.3558C215.084 70.5186 215.019 70.6 214.889 70.6ZM247.897 70.6H241.842C241.695 70.6 241.614 70.5186 241.598 70.3558L235.69 36.0052C235.657 35.875 235.706 35.8099 235.836 35.8099H241.451C241.582 35.8099 241.663 35.875 241.695 36.0052L244.894 58.5883L248.19 36.0052C248.222 35.875 248.32 35.8099 248.483 35.8099H252.999C253.129 35.8099 253.211 35.875 253.243 36.0052L256.49 58.5883L259.737 36.0052C259.77 35.875 259.851 35.8099 259.982 35.8099H265.548C265.711 35.8099 265.776 35.875 265.743 36.0052L259.786 70.3558C259.77 70.4209 259.721 70.4779 259.64 70.5267L259.542 70.6H253.487C253.39 70.6 253.308 70.5186 253.243 70.3558L250.68 52.4115L248.141 70.3558C248.125 70.5186 248.043 70.6 247.897 70.6ZM264.498 70.3558L270.699 36.0052C270.732 35.875 270.813 35.8099 270.944 35.8099H278.195C278.325 35.8099 278.406 35.875 278.439 36.0052L284.396 70.3558C284.412 70.5186 284.347 70.6 284.2 70.6H278.658C278.496 70.6 278.406 70.5186 278.39 70.3558L277.853 66.6937H271.041L270.504 70.3558C270.488 70.5186 270.406 70.6 270.26 70.6H264.694C264.563 70.6 264.498 70.5186 264.498 70.3558ZM274.288 47.309L272.042 61.347H276.852L274.801 47.309L274.508 45.4535L274.288 47.309ZM303.878 70.6H287.716C287.586 70.6 287.521 70.5186 287.521 70.3558L287.57 36.0541C287.57 35.8913 287.651 35.8099 287.814 35.8099H293.38C293.543 35.8099 293.624 35.8913 293.624 36.0541L293.575 64.4476H303.878C304.041 64.4476 304.122 64.529 304.122 64.6918V70.3558C304.122 70.5186 304.041 70.6 303.878 70.6ZM323.751 70.6H307.589C307.459 70.6 307.394 70.5186 307.394 70.3558L307.443 36.0541C307.443 35.8913 307.524 35.8099 307.687 35.8099H313.253C313.416 35.8099 313.497 35.8913 313.497 36.0541L313.448 64.4476H323.751C323.914 64.4476 323.995 64.529 323.995 64.6918V70.3558C323.995 70.5186 323.914 70.6 323.751 70.6ZM343.624 70.6H327.462C327.332 70.6 327.267 70.5186 327.267 70.3558L327.316 36.0052C327.316 35.875 327.381 35.8099 327.511 35.8099H343.575C343.706 35.8099 343.771 35.8913 343.771 36.0541V41.6449C343.771 41.7751 343.706 41.8402 343.575 41.8402H333.321V49.6527H343.575C343.706 49.6527 343.771 49.7178 343.771 49.848L343.82 55.5121C343.82 55.6423 343.754 55.7074 343.624 55.7074H333.321V64.4476H343.624C343.754 64.4476 343.82 64.529 343.82 64.6918V70.4047C343.82 70.5349 343.754 70.6 343.624 70.6ZM358.932 70.6H353.292C353.146 70.6 353.072 70.5186 353.072 70.3558V41.8402H346.578C346.416 41.8402 346.334 41.7588 346.334 41.5961L346.383 36.0052C346.383 35.875 346.448 35.8099 346.578 35.8099H365.572C365.751 35.8099 365.841 35.875 365.841 36.0052V41.5961C365.841 41.7588 365.776 41.8402 365.646 41.8402H359.078L359.127 70.3558C359.127 70.5186 359.062 70.6 358.932 70.6Z" fill="white"/>
</svg>
