<svg width="433" height="108" viewBox="0 0 433 108" fill="none" xmlns="http://www.w3.org/2000/svg">
<rect width="433" height="108" rx="10" fill="#EF4647"/>
<path d="M138.815 70.6H133.151C133.02 70.6 132.955 70.5186 132.955 70.3558L133.053 36.0052C133.053 35.875 133.118 35.8099 133.248 35.8099H139.352C139.482 35.8099 139.596 35.875 139.694 36.0052L144.259 42.597L148.8 36.0052C148.898 35.875 149.02 35.8099 149.166 35.8099H155.294C155.441 35.8099 155.514 35.875 155.514 36.0052L155.611 70.3558C155.611 70.5186 155.546 70.6 155.416 70.6H149.752C149.622 70.6 149.557 70.5186 149.557 70.3558L149.508 44.8431L144.259 52.4603L139.059 44.8431L139.01 70.3558C139.01 70.5186 138.945 70.6 138.815 70.6ZM165.719 70.6H160.055C159.892 70.6 159.811 70.5186 159.811 70.3558L159.86 36.0052C159.86 35.875 159.925 35.8099 160.055 35.8099H165.67C165.8 35.8099 165.865 35.875 165.865 36.0052L165.914 70.3558C165.914 70.5186 165.849 70.6 165.719 70.6ZM175.753 70.6H170.748C170.488 70.6 170.358 70.486 170.358 70.2582L170.309 36.2006C170.309 35.9401 170.439 35.8099 170.699 35.8099H175.216L183.663 55.5121L183.419 36.2006C183.419 35.9401 183.566 35.8099 183.859 35.8099H188.815C189.01 35.8099 189.108 35.9401 189.108 36.2006L189.156 70.307C189.156 70.5023 189.075 70.6 188.912 70.6H184.518L175.851 52.1918L176.217 70.2094C176.217 70.4698 176.062 70.6 175.753 70.6ZM204.171 70.6H198.531C198.385 70.6 198.312 70.5186 198.312 70.3558V41.8402H191.818C191.655 41.8402 191.573 41.7588 191.573 41.5961L191.622 36.0052C191.622 35.875 191.687 35.8099 191.818 35.8099H210.812C210.991 35.8099 211.08 35.875 211.08 36.0052V41.5961C211.08 41.7588 211.015 41.8402 210.885 41.8402H204.318L204.366 70.3558C204.366 70.5186 204.301 70.6 204.171 70.6ZM231.954 70.6H226.949C226.689 70.6 226.559 70.486 226.559 70.2582L226.51 36.2006C226.51 35.9401 226.64 35.8099 226.901 35.8099H231.417L239.864 55.5121L239.62 36.2006C239.62 35.9401 239.767 35.8099 240.06 35.8099H245.016C245.211 35.8099 245.309 35.9401 245.309 36.2006L245.358 70.307C245.358 70.5023 245.276 70.6 245.113 70.6H240.719L232.052 52.1918L232.418 70.2094C232.418 70.4698 232.264 70.6 231.954 70.6ZM258.956 71.0883C257.182 71.0883 255.546 70.6325 254.049 69.7211C252.568 68.8096 251.372 67.597 250.46 66.0834C249.565 64.5534 249.117 62.877 249.117 61.0541L249.166 45.2094C249.166 43.3539 249.614 41.6856 250.509 40.2045C251.388 38.7071 252.576 37.5108 254.073 36.6156C255.571 35.7041 257.198 35.2484 258.956 35.2484C260.779 35.2484 262.415 35.696 263.863 36.5912C265.328 37.4864 266.5 38.6908 267.379 40.2045C268.274 41.7019 268.722 43.3702 268.722 45.2094L268.771 61.0541C268.771 62.877 268.331 64.5453 267.452 66.059C266.557 67.5889 265.369 68.8096 263.888 69.7211C262.407 70.6325 260.763 71.0883 258.956 71.0883ZM258.956 65.058C259.965 65.058 260.844 64.6511 261.593 63.8373C262.342 63.0072 262.716 62.0795 262.716 61.0541L262.667 45.2094C262.667 44.1026 262.317 43.1667 261.617 42.4017C260.917 41.6368 260.03 41.2543 258.956 41.2543C257.931 41.2543 257.052 41.6286 256.32 42.3773C255.587 43.126 255.221 44.07 255.221 45.2094V61.0541C255.221 62.1446 255.587 63.0886 256.32 63.8861C257.052 64.6674 257.931 65.058 258.956 65.058ZM283.224 70.6H277.169C277.023 70.6 276.941 70.5186 276.925 70.3558L271.017 36.0052C270.984 35.875 271.033 35.8099 271.163 35.8099H276.778C276.909 35.8099 276.99 35.875 277.023 36.0052L280.221 58.5883L283.517 36.0052C283.549 35.875 283.647 35.8099 283.81 35.8099H288.326C288.457 35.8099 288.538 35.875 288.57 36.0052L291.818 58.5883L295.065 36.0052C295.097 35.875 295.179 35.8099 295.309 35.8099H300.875C301.038 35.8099 301.103 35.875 301.07 36.0052L295.113 70.3558C295.097 70.4209 295.048 70.4779 294.967 70.5267L294.869 70.6H288.815C288.717 70.6 288.636 70.5186 288.57 70.3558L286.007 52.4115L283.468 70.3558C283.452 70.5186 283.37 70.6 283.224 70.6Z" fill="white"/>
</svg>
